<?xml version="1.0" encoding="utf-8"?>
<!-- Generator: Adobe Illustrator 18.1.1, SVG Export Plug-In . SVG Version: 6.00 Build 0)  -->
<svg version="1.1" id="Layer_1" xmlns="http://www.w3.org/2000/svg" xmlns:xlink="http://www.w3.org/1999/xlink" x="0px" y="0px"
	 viewBox="-243 495 512 512" enable-background="new -243 495 512 512" xml:space="preserve">
<g display="none" opacity="0.3">
	<line display="inline" fill="none" stroke="#B35047" x1="-195" y1="495" x2="-195" y2="1007"/>
	<line display="inline" fill="none" stroke="#B35047" x1="-163" y1="495" x2="-163" y2="1007"/>
	<line display="inline" fill="none" stroke="#B35047" x1="-131" y1="495" x2="-131" y2="1007"/>
	<line display="inline" fill="none" stroke="#B35047" x1="-99" y1="495" x2="-99" y2="1007"/>
	<line display="inline" fill="none" stroke="#B35047" x1="-67" y1="495" x2="-67" y2="1007"/>
	<line display="inline" fill="none" stroke="#B35047" x1="-35" y1="495" x2="-35" y2="1007"/>
	<line display="inline" fill="none" stroke="#B35047" x1="-3" y1="495" x2="-3" y2="1007"/>
	<line display="inline" fill="none" stroke="#B35047" x1="29" y1="495" x2="29" y2="1007"/>
	<line display="inline" fill="none" stroke="#B35047" x1="61" y1="495" x2="61" y2="1007"/>
	<line display="inline" fill="none" stroke="#B35047" x1="93" y1="495" x2="93" y2="1007"/>
	<line display="inline" fill="none" stroke="#B35047" x1="125" y1="495" x2="125" y2="1007"/>
	<line display="inline" fill="none" stroke="#B35047" x1="157" y1="495" x2="157" y2="1007"/>
	<line display="inline" fill="none" stroke="#B35047" x1="189" y1="495" x2="189" y2="1007"/>
	<line display="inline" fill="none" stroke="#B35047" x1="221" y1="495" x2="221" y2="1007"/>
	<line display="inline" fill="none" stroke="#B35047" x1="253" y1="495" x2="253" y2="1007"/>
	<line display="inline" fill="none" stroke="#B35047" x1="-243" y1="543" x2="269" y2="543"/>
	<line display="inline" fill="none" stroke="#B35047" x1="-243" y1="575" x2="269" y2="575"/>
	<line display="inline" fill="none" stroke="#B35047" x1="-243" y1="607" x2="269" y2="607"/>
	<line display="inline" fill="none" stroke="#B35047" x1="-243" y1="639" x2="269" y2="639"/>
	<line display="inline" fill="none" stroke="#B35047" x1="-243" y1="671" x2="269" y2="671"/>
	<line display="inline" fill="none" stroke="#B35047" x1="-243" y1="703" x2="269" y2="703"/>
	<line display="inline" fill="none" stroke="#B35047" x1="-243" y1="735" x2="269" y2="735"/>
	<line display="inline" fill="none" stroke="#B35047" x1="-243" y1="767" x2="269" y2="767"/>
	<line display="inline" fill="none" stroke="#B35047" x1="-243" y1="799" x2="269" y2="799"/>
	<line display="inline" fill="none" stroke="#B35047" x1="-243" y1="831" x2="269" y2="831"/>
	<line display="inline" fill="none" stroke="#B35047" x1="-243" y1="863" x2="269" y2="863"/>
	<line display="inline" fill="none" stroke="#B35047" x1="-243" y1="895" x2="269" y2="895"/>
	<line display="inline" fill="none" stroke="#B35047" x1="-243" y1="927" x2="269" y2="927"/>
	<line display="inline" fill="none" stroke="#B35047" x1="-243" y1="959" x2="269" y2="959"/>
	<line display="inline" fill="none" stroke="#B35047" x1="-243" y1="991" x2="269" y2="991"/>
	<line display="inline" fill="none" stroke="#B35047" x1="-243" y1="511" x2="269" y2="511"/>
	<line display="inline" fill="none" stroke="#B35047" x1="-227" y1="495" x2="-227" y2="1007"/>
</g>
<g display="none">
	<line display="inline" fill="none" stroke="#B35047" x1="-211" y1="495" x2="-211" y2="1007"/>
	<line display="inline" fill="none" stroke="#B35047" x1="-179" y1="495" x2="-179" y2="1007"/>
	<line display="inline" fill="none" stroke="#B35047" x1="-147" y1="495" x2="-147" y2="1007"/>
	<line display="inline" fill="none" stroke="#B35047" x1="-115" y1="495" x2="-115" y2="1007"/>
	<line display="inline" fill="none" stroke="#B35047" x1="-83" y1="495" x2="-83" y2="1007"/>
	<line display="inline" fill="none" stroke="#B35047" x1="-51" y1="495" x2="-51" y2="1007"/>
	<line display="inline" fill="none" stroke="#B35047" x1="-19" y1="495" x2="-19" y2="1007"/>
	<line display="inline" fill="none" stroke="#B35047" x1="13" y1="495" x2="13" y2="1007"/>
	<line display="inline" fill="none" stroke="#B35047" x1="45" y1="495" x2="45" y2="1007"/>
	<line display="inline" fill="none" stroke="#B35047" x1="77" y1="495" x2="77" y2="1007"/>
	<line display="inline" fill="none" stroke="#B35047" x1="109" y1="495" x2="109" y2="1007"/>
	<line display="inline" fill="none" stroke="#B35047" x1="141" y1="495" x2="141" y2="1007"/>
	<line display="inline" fill="none" stroke="#B35047" x1="173" y1="495" x2="173" y2="1007"/>
	<line display="inline" fill="none" stroke="#B35047" x1="205" y1="495" x2="205" y2="1007"/>
	<line display="inline" fill="none" stroke="#B35047" x1="237" y1="495" x2="237" y2="1007"/>
	<line display="inline" fill="none" stroke="#B35047" x1="-243" y1="527" x2="269" y2="527"/>
	<line display="inline" fill="none" stroke="#B35047" x1="-243" y1="559" x2="269" y2="559"/>
	<line display="inline" fill="none" stroke="#B35047" x1="-243" y1="591" x2="269" y2="591"/>
	<line display="inline" fill="none" stroke="#B35047" x1="-243" y1="623" x2="269" y2="623"/>
	<line display="inline" fill="none" stroke="#B35047" x1="-243" y1="655" x2="269" y2="655"/>
	<line display="inline" fill="none" stroke="#B35047" x1="-243" y1="687" x2="269" y2="687"/>
	<line display="inline" fill="none" stroke="#B35047" x1="-243" y1="719" x2="269" y2="719"/>
	<line display="inline" fill="none" stroke="#B35047" x1="-243" y1="751" x2="269" y2="751"/>
	<line display="inline" fill="none" stroke="#B35047" x1="-243" y1="783" x2="269" y2="783"/>
	<line display="inline" fill="none" stroke="#B35047" x1="-243" y1="815" x2="269" y2="815"/>
	<line display="inline" fill="none" stroke="#B35047" x1="-243" y1="847" x2="269" y2="847"/>
	<line display="inline" fill="none" stroke="#B35047" x1="-243" y1="879" x2="269" y2="879"/>
	<line display="inline" fill="none" stroke="#B35047" x1="-243" y1="911" x2="269" y2="911"/>
	<line display="inline" fill="none" stroke="#B35047" x1="-243" y1="943" x2="269" y2="943"/>
	<line display="inline" fill="none" stroke="#B35047" x1="-243" y1="975" x2="269" y2="975"/>
	<rect x="-243" y="495" display="inline" fill="none" stroke="#B35047" width="512" height="512"/>
</g>
<path fill="#333333" d="M13,1007c-141.4,0-256-114.6-256-256s114.6-256,256-256s256,114.6,256,256S154.4,1007,13,1007z M13,559
	c-106,0-192,86-192,192s86,192,192,192s192-86,192-192S119,559,13,559z M107.1,866.4l-5.6,3.3l-16.2,9.9l-9.6,7
	c-7.1,3.4-14.6,6.1-22.2,8.4v-9.4l-2.7-21.7c0,0-1.3-12.5-3.4-15.8c-2-3.3-6.8-7.9-11.5-9.9s-8.1-2-10.8-5.2
	c-2.7-3.3-4.8-9.2-8.1-14.5c-3.4-5.3-7.5-10.6-7.5-13.2s0-29.7,0-29.7l3.4-25l7.4-5.3l8.8-9.9l6.1-2l21,3.9H71l6.1,12.5L91.3,761
	l8.8,13.8l11.5,3.9h12.9l8.8,10.6l5.4,11.2l2,7.9v13.2l-1.4,7.8C130.8,843.5,119.9,855.9,107.1,866.4z M54.7,639.1L39.8,647
	l-5.4,15.2l-8.8,7.9H-3.6l-13.5,5.3l-0.7,10.5l-5.4,8.6l-1.4,9.2l2.7,7.9l3.4,7.9c0,0,8.2,9.2,0,15.8c0,0-10.2,0-12.2-3.3
	c-2-3.3-16.9-12.5-19.7-15.2c-2.7-2.6-11.5-5.2-11.5-5.2l-10.8-4l-10.2-0.7l0.7-13.8l-0.7-11.8l-4.1-8.6l-11.5-8.6l-0.7-9.2l1.4-5.1
	c27.4-26.5,65.2-43,107-43c23.6,0,45.6,5.7,65.5,15l-0.4,3.5L54.7,639.1z"/>
</svg>
